# xmcd CD database file
#
# Track frame offsets:
#	150
#	39025
#	86523
#	140909
#	190956
#
# Disc length: 2912 seconds
#
# Revision: 0
# Processed by: cddbd v1.5.2PL0 Copyright (c) Steve Scherf et al.
# Submitted via: CDex 1.51
#
DISCID=3c0b5e05
DTITLE=Torben Waldorff Quartet - Brilliance
DYEAR=2006
DGENRE=Jazz
TTITLE0=Alice
TTITLE1=Jurotrash
TTITLE2=Astro
TTITLE3=Seen from Above
TTITLE4=Jeep
EXTD=YEAR: 2006
EXTT0=
EXTT1=
EXTT2=
EXTT3=
EXTT4=
PLAYORDER=
